<svg width="1000" height="300" viewBox="0 0 1000 300" fill="none" xmlns="http://www.w3.org/2000/svg">
<path d="M173.28 16.0966L177.047 61.2992C174.954 60.8747 172.966 60.5564 171.082 60.3442C169.408 60.132 167.734 60.0258 166.06 60.0258C157.479 60.0258 151.201 62.4664 147.225 67.3474C143.458 72.0162 141.574 77.0033 141.574 82.3088L120.542 75.9422C120.542 66.8168 121.903 57.6915 124.623 48.5661C127.344 39.2285 132.052 31.4825 138.749 25.3282C145.446 18.9616 154.55 15.7783 166.06 15.7783C167.106 15.7783 168.257 15.7783 169.513 15.7783C170.768 15.7783 172.024 15.8844 173.28 16.0966ZM115.52 181.627C135.819 181.627 151.306 185.765 161.979 194.042C172.652 202.318 177.988 214.733 177.988 231.286C177.988 246.141 174.326 258.238 167.001 267.575C159.677 277.125 149.004 284.128 134.982 288.585C121.17 293.042 104.324 295.27 84.4424 295.27C53.679 295.27 31.9144 292.087 19.1487 285.72C6.38289 279.354 0 269.804 0 257.071C0 248.157 4.08086 241.26 12.2426 236.379C20.4043 231.498 33.7979 229.058 52.4234 229.058L51.7955 234.469C35.2628 232.772 23.3342 228.527 16.0095 221.736C8.89419 214.733 5.33651 205.714 5.33651 194.678C5.33651 183.431 9.83592 174.624 18.8347 168.257C28.0428 161.678 39.3437 158.389 52.7373 158.389L74.3972 167.939H68.119C61.4222 167.939 56.7135 168.576 53.9929 169.849C51.2724 170.91 49.9121 172.608 49.9121 174.942C49.9121 177.064 50.8538 178.762 52.7373 180.035C54.83 181.096 58.1784 181.627 62.7825 181.627H115.52ZM85.3842 251.022C94.1737 251.022 101.394 250.704 107.044 250.067C112.904 249.431 117.299 248.37 120.228 246.884C123.158 245.611 124.623 243.913 124.623 241.791C124.623 240.518 124.205 239.456 123.368 238.608C122.53 237.971 120.961 237.653 118.659 237.653H57.446C55.3532 237.653 53.7837 238.183 52.7373 239.244C51.6909 240.305 51.1677 241.579 51.1677 243.064C51.1677 245.823 54.2022 247.839 60.2712 249.112C66.3401 250.386 74.7111 251.022 85.3842 251.022ZM89.7789 64.4824C108.195 64.4824 123.577 66.4985 135.924 70.5307C148.271 74.5628 157.584 80.611 163.862 88.6753C170.14 96.5274 173.28 106.608 173.28 118.916C173.28 131.013 170.14 141.093 163.862 149.158C157.584 157.01 148.271 162.952 135.924 166.984C123.577 170.804 108.195 172.714 89.7789 172.714C62.3639 172.714 41.5411 168.257 27.3104 159.344C13.289 150.431 6.27825 136.955 6.27825 118.916C6.27825 106.608 9.41737 96.5274 15.6956 88.6753C21.9739 80.611 31.2866 74.5628 43.6338 70.5307C56.1903 66.4985 71.572 64.4824 89.7789 64.4824ZM89.7789 102.363C85.5934 102.363 82.3497 103.637 80.0477 106.183C77.7456 108.73 76.5946 112.868 76.5946 118.598C76.5946 124.328 77.7456 128.466 80.0477 131.013C82.3497 133.56 85.5934 134.833 89.7789 134.833C93.9644 134.833 97.2082 133.56 99.5102 131.013C101.812 128.466 102.963 124.328 102.963 118.598C102.963 112.868 101.812 108.73 99.5102 106.183C97.2082 103.637 93.9644 102.363 89.7789 102.363Z" fill="#00ADD8"/>
<path d="M271.26 64.4824C288.839 64.4824 304.116 67.7718 317.091 74.3506C330.275 80.7171 340.53 90.0548 347.854 102.363C355.179 114.672 358.841 129.633 358.841 147.248C358.841 164.65 355.179 179.611 347.854 192.132C340.53 204.44 330.275 213.884 317.091 220.463C304.116 226.829 288.839 230.013 271.26 230.013C253.89 230.013 238.613 226.829 225.428 220.463C212.244 213.884 201.99 204.44 194.665 192.132C187.34 179.611 183.678 164.65 183.678 147.248C183.678 129.633 187.34 114.672 194.665 102.363C201.99 90.0548 212.244 80.7171 225.428 74.3506C238.613 67.7718 253.89 64.4824 271.26 64.4824ZM271.26 113.823C268.12 113.823 265.4 114.778 263.098 116.688C260.796 118.386 259.017 121.675 257.761 126.556C256.715 131.437 256.192 138.334 256.192 147.248C256.192 156.161 256.715 163.058 257.761 167.939C259.017 172.608 260.796 175.897 263.098 177.807C265.4 179.717 268.12 180.672 271.26 180.672C274.608 180.672 277.328 179.717 279.421 177.807C281.723 175.897 283.397 172.608 284.444 167.939C285.699 163.058 286.327 156.161 286.327 147.248C286.327 138.334 285.699 131.437 284.444 126.556C283.397 121.675 281.723 118.386 279.421 116.688C277.328 114.778 274.608 113.823 271.26 113.823Z" fill="#00ADD8"/>
<path d="M441.138 4V163.482C441.138 169.849 442.08 174.517 443.964 177.489C445.847 180.46 449.195 181.945 454.009 181.945C456.311 181.945 458.299 181.839 459.973 181.627C461.857 181.202 463.635 180.778 465.31 180.353L462.17 219.826C458.194 222.797 452.439 225.238 444.905 227.148C437.581 229.058 430.361 230.013 423.245 230.013C403.783 230.013 389.866 225.768 381.495 217.279C373.124 208.791 368.938 194.572 368.938 174.624V4H441.138Z" fill="#CE3262"/>
<path d="M564.982 127.511C564.982 122.63 563.831 118.81 561.529 116.051C559.436 113.292 556.087 111.913 551.483 111.913C547.089 111.913 543.426 113.186 540.497 115.733C537.567 118.28 535.892 123.373 535.474 131.013L474.575 122.1C476.04 104.485 483.574 90.479 497.177 80.0803C510.779 69.6816 530.556 64.4822 556.506 64.4822C574.713 64.4822 589.676 67.0289 601.395 72.1221C613.324 77.2154 622.114 84.3247 627.764 93.45C633.624 102.575 636.554 113.186 636.554 125.283V174.624C636.554 183.325 640.635 187.675 648.796 187.675C651.098 187.675 652.877 187.357 654.133 186.72L650.994 224.283C643.25 228.103 633.938 230.013 623.055 230.013C613.22 230.013 604.43 228.633 596.687 225.874C589.153 222.903 583.189 218.553 578.794 212.823C574.608 206.881 572.516 199.347 572.516 190.222V187.038H579.422C579.212 195.103 576.596 202.424 571.574 209.003C566.76 215.37 560.273 220.463 552.111 224.283C543.95 228.103 534.637 230.013 524.173 230.013C513.081 230.013 503.664 228.315 495.921 224.919C488.387 221.524 482.632 216.643 478.656 210.276C474.68 203.91 472.691 196.376 472.691 187.675C472.691 176.003 476.354 166.559 483.678 159.344C491.003 151.916 501.571 146.823 515.383 144.064L570.004 132.604L569.69 158.389L552.739 162.527C548.344 163.588 545.205 165.392 543.322 167.939C541.438 170.273 540.497 173.244 540.497 176.852C540.497 180.247 541.543 183.006 543.636 185.128C545.728 187.251 548.658 188.312 552.425 188.312C554.099 188.312 555.669 187.993 557.134 187.357C558.808 186.72 560.168 185.765 561.215 184.492C562.47 183.218 563.412 181.733 564.04 180.035C564.668 178.125 564.982 176.003 564.982 173.669V127.511Z" fill="#CE3262"/>
<path d="M658.807 226.829V184.81L707.777 130.058L722.531 115.415L699.616 116.051H658.807V67.6655H802.265V109.685L754.236 163.8L738.855 179.08L764.596 178.444H805.404V226.829H658.807Z" fill="#CE3262"/>
<path d="M1000 67.6655L953.855 209.003C946.949 230.013 939.206 246.778 930.626 259.299C922.255 272.032 912.105 281.157 900.176 286.675C888.457 292.405 874.122 295.27 857.17 295.27C847.125 295.27 838.022 294.315 829.86 292.405C821.698 290.495 814.688 287.948 808.828 284.765L822.012 238.607C825.361 240.517 828.918 241.897 832.685 242.746C836.661 243.595 842.416 244.019 849.95 244.019C856.647 244.019 861.565 243.382 864.704 242.109C868.053 240.836 870.355 238.607 871.61 235.424L872.552 232.878L852.776 186.083L807.886 67.6655H886.678L900.804 149.794L906.768 187.038L913.675 149.476L929.37 67.6655H1000Z" fill="#CE3262"/>
</svg>
