<svg width="1000" height="1000" viewBox="0 0 1000 1000" fill="none" xmlns="http://www.w3.org/2000/svg">
<rect width="1000" height="1000" fill="#FBBC04"/>
<path d="M114.41 479.263V731.983C114.41 742.072 115.902 749.47 118.887 754.178C121.872 758.886 127.178 761.24 134.805 761.24C138.453 761.24 141.603 761.072 144.256 760.736C147.241 760.063 150.06 759.391 152.713 758.718L147.738 821.268C141.437 825.976 132.318 829.843 120.379 832.87C108.772 835.896 97.3315 837.41 86.0563 837.41C55.2153 837.41 33.1623 830.684 19.8974 817.232C6.63247 803.781 0 781.25 0 749.638V479.263H114.41Z" fill="#CE3262"/>
<path d="M310.656 674.983C310.656 667.248 308.832 661.195 305.184 656.823C301.868 652.451 296.562 650.265 289.266 650.265C282.302 650.265 276.499 652.283 271.856 656.319C267.213 660.354 264.56 668.425 263.897 680.531L167.395 666.407C169.716 638.495 181.654 616.3 203.21 599.822C224.766 583.344 256.104 575.105 297.225 575.105C326.077 575.105 349.788 579.141 368.358 587.212C387.261 595.282 401.189 606.548 410.143 621.008C419.428 635.469 424.071 652.283 424.071 671.452V749.638C424.071 763.426 430.538 770.32 443.471 770.32C447.119 770.32 449.938 769.816 451.928 768.807L446.953 828.33C434.683 834.383 419.926 837.41 402.682 837.41C387.095 837.41 373.167 835.224 360.897 830.852C348.959 826.144 339.507 819.25 332.543 810.17C325.911 800.754 322.594 788.816 322.594 774.356V769.311H333.538C333.206 782.09 329.061 793.692 321.102 804.117C313.475 814.206 303.194 822.277 290.261 828.33C277.328 834.383 262.571 837.41 245.989 837.41C228.413 837.41 213.49 834.719 201.22 829.339C189.282 823.958 180.162 816.223 173.861 806.135C167.56 796.046 164.41 784.108 164.41 770.32C164.41 751.824 170.213 736.86 181.82 725.426C193.427 713.656 210.174 705.585 232.061 701.213L318.615 683.054L318.118 723.913L291.256 730.47C284.292 732.152 279.318 735.01 276.333 739.045C273.348 742.745 271.856 747.453 271.856 753.169C271.856 758.55 273.514 762.922 276.83 766.285C280.147 769.648 284.789 771.329 290.759 771.329C293.412 771.329 295.899 770.825 298.22 769.816C300.873 768.807 303.029 767.294 304.687 765.276C306.677 763.258 308.169 760.904 309.164 758.214C310.159 755.187 310.656 751.824 310.656 748.125V674.983Z" fill="#CE3262"/>
<path d="M459.335 832.365V765.78L536.935 679.018L560.314 655.814L524.001 656.823H459.335V580.15H686.663V646.734L610.555 732.488L586.181 756.701L626.97 755.692H691.637V832.365H459.335Z" fill="#CE3262"/>
<path d="M1000 580.15L926.877 804.117C915.933 837.41 903.663 863.976 890.067 883.817C876.802 903.995 860.718 918.455 841.816 927.198C823.245 936.278 800.529 940.818 773.667 940.818C757.749 940.818 743.323 939.305 730.39 936.278C717.457 933.252 706.347 929.216 697.062 924.172L717.954 851.029C723.26 854.056 728.898 856.242 734.867 857.587C741.168 858.932 750.288 859.605 762.226 859.605C772.838 859.605 780.631 858.596 785.605 856.578C790.911 854.56 794.559 851.029 796.549 845.985L798.041 841.949L766.703 767.798L695.57 580.15H820.426L842.81 710.293L852.262 769.311L863.205 709.788L888.077 580.15H1000Z" fill="#CE3262"/>
<path d="M477.228 60.5567L483.197 132.186C479.881 131.513 476.73 131.009 473.746 130.673C471.093 130.336 468.44 130.168 465.787 130.168C452.19 130.168 442.241 134.036 435.941 141.77C429.971 149.168 426.987 157.071 426.987 165.478L393.659 155.39C393.659 140.929 395.814 126.469 400.125 112.009C404.436 97.2121 411.898 84.9376 422.51 75.1852C433.122 65.0966 447.547 60.0522 465.787 60.0522C467.445 60.0522 469.269 60.0522 471.259 60.0522C473.248 60.0522 475.238 60.2204 477.228 60.5567ZM385.7 322.861C417.867 322.861 442.407 329.419 459.32 342.534C476.233 355.649 484.689 375.322 484.689 401.552C484.689 425.093 478.886 444.261 467.279 459.058C455.672 474.191 438.759 485.288 416.541 492.35C394.654 499.412 367.958 502.943 336.454 502.943C287.705 502.943 253.216 497.899 232.987 487.81C212.758 477.722 202.644 462.589 202.644 442.411C202.644 428.287 209.11 417.358 222.044 409.623C234.977 401.889 256.201 398.021 285.715 398.021L284.72 406.597C258.522 403.906 239.62 397.181 228.013 386.419C216.738 375.322 211.1 361.03 211.1 343.543C211.1 325.72 218.23 311.764 232.49 301.675C247.081 291.25 264.989 286.038 286.213 286.038L320.536 301.171H310.587C299.975 301.171 292.513 302.179 288.202 304.197C283.891 305.879 281.736 308.569 281.736 312.268C281.736 315.631 283.228 318.321 286.213 320.339C289.529 322.02 294.835 322.861 302.131 322.861H385.7ZM337.946 432.827C351.874 432.827 363.315 432.323 372.269 431.314C381.554 430.305 388.518 428.624 393.161 426.27C397.804 424.252 400.125 421.562 400.125 418.199C400.125 416.181 399.462 414.5 398.136 413.154C396.809 412.145 394.322 411.641 390.674 411.641H293.674C290.358 411.641 287.871 412.482 286.213 414.163C284.555 415.845 283.725 417.862 283.725 420.216C283.725 424.588 288.534 427.783 298.151 429.801C307.768 431.818 321.033 432.827 337.946 432.827ZM344.91 137.23C374.093 137.23 398.467 140.425 418.033 146.814C437.599 153.204 452.356 162.788 462.305 175.567C472.253 188.01 477.228 203.983 477.228 223.488C477.228 242.656 472.253 258.63 462.305 271.409C452.356 283.852 437.599 293.268 418.033 299.657C398.467 305.71 374.093 308.737 344.91 308.737C301.467 308.737 268.471 301.675 245.92 287.551C223.702 273.427 212.592 252.073 212.592 223.488C212.592 203.983 217.567 188.01 227.515 175.567C237.464 162.788 252.221 153.204 271.787 146.814C291.684 140.425 316.059 137.23 344.91 137.23ZM344.91 197.258C338.278 197.258 333.137 199.275 329.49 203.311C325.842 207.346 324.018 213.904 324.018 222.984C324.018 232.063 325.842 238.621 329.49 242.656C333.137 246.692 338.278 248.71 344.91 248.71C351.542 248.71 356.683 246.692 360.33 242.656C363.978 238.621 365.802 232.063 365.802 222.984C365.802 213.904 363.978 207.346 360.33 203.311C356.683 199.275 351.542 197.258 344.91 197.258Z" fill="#00ADD8"/>
<path d="M632.49 137.23C660.346 137.23 684.555 142.443 705.115 152.868C726.007 162.956 742.257 177.753 753.864 197.258C765.471 216.762 771.274 240.471 771.274 268.382C771.274 295.958 765.471 319.666 753.864 339.507C742.257 359.012 726.007 373.977 705.115 384.402C684.555 394.49 660.346 399.535 632.49 399.535C604.965 399.535 580.756 394.49 559.864 384.402C538.972 373.977 522.722 359.012 511.115 339.507C499.509 319.666 493.705 295.958 493.705 268.382C493.705 240.471 499.509 216.762 511.115 197.258C522.722 177.753 538.972 162.956 559.864 152.868C580.756 142.443 604.965 137.23 632.49 137.23ZM632.49 215.417C627.515 215.417 623.204 216.93 619.556 219.957C615.908 222.647 613.09 227.86 611.1 235.594C609.442 243.329 608.613 254.258 608.613 268.382C608.613 282.507 609.442 293.436 611.1 301.171C613.09 308.569 615.908 313.781 619.556 316.808C623.204 319.835 627.515 321.348 632.49 321.348C637.796 321.348 642.107 319.835 645.423 316.808C649.071 313.781 651.724 308.569 653.382 301.171C655.372 293.436 656.367 282.507 656.367 268.382C656.367 254.258 655.372 243.329 653.382 235.594C651.724 227.86 649.071 222.647 645.423 219.957C642.107 216.93 637.796 215.417 632.49 215.417Z" fill="#00ADD8"/>
</svg>
